<?xml version="1.0" encoding="UTF-8"?>
<svg id="home" xmlns="http://www.w3.org/2000/svg" viewBox="0 0 48 48">
  <path d="M16.76,45.06v-7.34c0-1.87,1.61-3.39,3.6-3.39h7.26c.95,0,1.87,.36,2.54,.99s1.05,1.5,1.05,2.4v7.34c0,.78,.32,1.53,.9,2.08s1.37,.86,2.2,.86h4.95c2.31,0,4.53-.86,6.17-2.4s2.56-3.63,2.56-5.82V18.88c0-1.76-.83-3.43-2.26-4.57L28.89,1.62c-2.93-2.23-7.13-2.15-9.98,.17L2.44,14.32C.94,15.41,.04,17.09,0,18.88v20.88c0,4.55,3.91,8.23,8.73,8.23h4.84c1.72,0,3.11-1.31,3.12-2.92l.07-.02Z"/>
</svg>