<?xml version="1.0" encoding="UTF-8"?>
<svg id="Layer_2" data-name="Layer 2" xmlns="http://www.w3.org/2000/svg" viewBox="0 0 47.44 47.05">
  <path d="M23.79,0S11.84,12.47,11.32,12.47s1.08,2.49,5.6,1.84c0,0,1.13,3.2,6.87,1.6,0,0,3.86,2.35,6.31-1.41,0,0,4.61,1.22,6.02-1.79L23.79,0Z"/>
  <path d="M31.4,16.19s9.04,8.4,11.22,8.96c0,0-1.13,4.66-8.68,3.81,0,0-4.46,3.88-9.15,.99,0,0-5.53,3.46-10.4-1.41,0,0-5.65,1.27-8.4-3.32l12.71-11.36s1.84,3.88,4.66,2.61c0,0,2.85,4.02,8.05-.28Z"/>
  <path d="M13.76,26.92S3.74,38.07,0,39.26c0,0,3.67,6.17,11.22,3.08,0,0,1.81,7.12,12.45,2.85,0,0,7.48,5.38,12.45-2.14,0,0,7.93,2.77,11.32-3.64,0,0-9.6-7.12-11.72-9.49,0,0-4.52,5.62-10.73,1.34,0,0-5.93,3.16-11.22-4.35Z"/>
</svg>