<?xml version="1.0" encoding="UTF-8"?>
<svg id="Layer_1" data-name="Layer 1" xmlns="http://www.w3.org/2000/svg" viewBox="0 0 49.6 49.6">
  <defs>
    <style>
      .cls-1, .cls-2 {
        fill: none;
      }

      .cls-2 {
        stroke: #000;
        stroke-miterlimit: 10;
      }
    </style>
  </defs>
  <circle class="cls-2" cx="24.8" cy="24.8" r="24.3"/>
  <circle class="cls-1" cx="11.95" cy="27.1" r="4.89"/>
  <circle class="cls-1" cx="38.08" cy="27.1" r="4.89"/>
  <path class="cls-2" d="M35.6,16.51v-3.22c0-1.1-.9-2-2-2H16c-1.1,0-2,.9-2,2v3.22c0,.18,.03,.35,.08,.52h21.45c.05-.17,.08-.34,.08-.52Z"/>
  <path d="M16,18.51h17.6c.92,0,1.69-.63,1.92-1.48H14.08c.23,.85,1,1.48,1.92,1.48Z"/>
  <circle class="cls-1" cx="38.08" cy="27.1" r="4.89"/>
  <circle class="cls-1" cx="11.95" cy="27.1" r="4.89"/>
  <path d="M40.04,17.03h-4.52c-.23,.85-1,1.48-1.92,1.48H16c-.92,0-1.69-.63-1.92-1.48h-4.52c-2.76,0-5,2.24-5,5v10.14c0,2.76,2.24,5,5,5h30.48c2.76,0,5-2.24,5-5v-10.14c0-2.76-2.24-5-5-5ZM11.95,31.99c-2.7,0-4.89-2.19-4.89-4.89s2.19-4.89,4.89-4.89,4.89,2.19,4.89,4.89-2.19,4.89-4.89,4.89Zm17.1-2.05h-8.51c-.81,0-.8-1.25,0-1.25h8.51c.81,0,.8,1.25,0,1.25Zm0-2.21h-8.51c-.81,0-.8-1.25,0-1.25h8.51c.81,0,.8,1.25,0,1.25Zm0-2.3h-8.51c-.81,0-.8-1.25,0-1.25h8.51c.81,0,.8,1.25,0,1.25Zm9.03,6.56c-2.7,0-4.89-2.19-4.89-4.89s2.19-4.89,4.89-4.89,4.89,2.19,4.89,4.89-2.19,4.89-4.89,4.89Z"/>
  <g>
    <path class="cls-1" d="M29.05,24.18h-8.51c-.8,0-.81,1.25,0,1.25h8.51c.8,0,.81-1.25,0-1.25Z"/>
    <path class="cls-1" d="M29.05,26.48h-8.51c-.8,0-.81,1.25,0,1.25h8.51c.8,0,.81-1.25,0-1.25Z"/>
    <path class="cls-1" d="M29.05,28.69h-8.51c-.8,0-.81,1.25,0,1.25h8.51c.8,0,.81-1.25,0-1.25Z"/>
  </g>
</svg>